<?xml version="1.0" encoding="iso-8859-1"?>
<!-- Generator: Adobe Illustrator 19.0.0, SVG Export Plug-In . SVG Version: 6.00 Build 0)  -->
<svg xmlns="http://www.w3.org/2000/svg" xmlns:xlink="http://www.w3.org/1999/xlink" version="1.1" id="Layer_1" x="0px" y="0px" viewBox="0 0 512 512" style="enable-background:new 0 0 512 512;" xml:space="preserve" width="512" height="512">
<g>
	<ellipse style="fill:#67708D;" cx="256" cy="256" rx="248.459" ry="248.5"/>
	<path style="fill:#58637F;" d="M410.841,61.666c33.889,42.476,54.157,96.3,54.157,154.867c0,137.243-111.239,248.5-248.459,248.5   c-58.557,0-112.372-20.272-154.841-54.166C107.223,467.927,177.336,504.5,256,504.5c137.22,0,248.46-111.257,248.46-248.5   C504.46,177.323,467.893,107.198,410.841,61.666z"/>
	<g>
		<path style="fill:#D6DDEA;" d="M315.178,209.727v35.821c0,5.344-2.953,10.177-7.707,12.615l-34.21,17.537v-131.53h-31.064v154.97    l-34.209-17.537c-4.755-2.437-7.708-7.271-7.708-12.614v-35.822h-31.064v35.822c0,17.055,9.427,32.482,24.602,40.262    l40.671,20.849c4.754,2.437,7.708,7.271,7.708,12.614v10.268v11.451h31.064v-11.451v-10.268v-13.172v-10.268    c0-5.343,2.954-10.176,7.708-12.614l40.671-20.849c15.175-7.779,24.602-23.207,24.602-40.263v-35.821H315.178z"/>
		<circle style="fill:#9FADC9;" cx="185.469" cy="209.727" r="26.962"/>
		<path style="fill:#9FADC9;" d="M348.426,220.641h-38.532c-2.798,0-5.067-2.269-5.067-5.067v-38.54    c0-2.798,2.269-5.067,5.067-5.067h38.532c2.798,0,5.067,2.269,5.067,5.067v38.54C353.493,218.373,351.225,220.641,348.426,220.641    z"/>
		<ellipse style="fill:#9FADC9;" cx="258.713" cy="379.853" rx="32.504" ry="32.509"/>
		<path style="fill:#9FADC9;" d="M292.783,157.632h-68.139c-3.82,0-6.056-4.302-3.862-7.429l34.07-48.557    c1.879-2.678,5.845-2.678,7.724,0l34.07,48.557C298.839,153.33,296.602,157.632,292.783,157.632z"/>
	</g>
</g>
<g>
	<path d="M436.991,74.98C388.646,26.629,324.37,0,256,0S123.354,26.629,75.009,74.98C26.665,123.333,0.041,187.62,0.041,256   s26.625,132.667,74.968,181.02C123.354,485.371,187.63,512,256,512c55.932,0,109.064-17.718,153.652-51.238   c3.311-2.489,3.977-7.191,1.488-10.502c-2.488-3.311-7.19-3.976-10.501-1.488C358.67,480.323,308.655,497,256,497   c-64.362,0-124.873-25.068-170.384-70.587S15.041,320.374,15.041,256S40.105,131.105,85.616,85.587S191.638,15,256,15   s124.873,25.068,170.384,70.587S496.959,191.626,496.959,256c0,63.84-24.708,124.002-69.572,169.403   c-2.911,2.946-2.883,7.695,0.063,10.606c2.946,2.911,7.694,2.882,10.606-0.063c47.656-48.228,73.902-112.133,73.902-179.946   C511.959,187.62,485.335,123.333,436.991,74.98z"/>
	<path d="M284.387,313.329l40.673-20.848c17.688-9.057,28.677-27.041,28.677-46.937v-18.597c4.279-2.007,7.256-6.344,7.256-11.374   v-38.54c0-6.93-5.638-12.567-12.567-12.567h-38.532c-6.929,0-12.567,5.638-12.567,12.567v38.54c0,6.173,4.477,11.309,10.353,12.36   v17.611c0,2.52-1.389,4.795-3.631,5.942l-23.292,11.942v-98.297h12.025c4.575,0,8.729-2.521,10.84-6.581   c2.111-4.061,1.79-8.91-0.838-12.656l-34.07-48.559c-2.285-3.255-6.023-5.199-10.001-5.199s-7.716,1.944-10.001,5.2l-34.07,48.558   c-2.628,3.746-2.949,8.596-0.838,12.656c2.111,4.06,6.265,6.581,10.84,6.581H234.7v39.484c0,4.143,3.358,7.5,7.5,7.5   s7.5-3.357,7.5-7.5v-39.484h16.057v110.57c0,2.613,1.36,5.037,3.589,6.399c1.197,0.732,2.552,1.101,3.911,1.101   c1.171,0,2.345-0.274,3.421-0.826l34.208-17.539c7.274-3.723,11.792-11.115,11.792-19.293v-17.403h16.057v17.403   c0,14.237-7.86,27.106-20.516,33.586l-40.683,20.853c-7.267,3.735-11.781,11.125-11.781,19.287v21.207   c-2.289-0.408-4.64-0.634-7.044-0.634c-3.129,0-6.171,0.373-9.096,1.056c-0.615-7.431-4.975-14.018-11.705-17.478l-40.675-20.848   c-12.655-6.487-20.516-19.357-20.516-33.586v-25.923c2.795,0.734,5.726,1.128,8.748,1.128c2.508,0,4.952-0.276,7.309-0.788v25.583   c0,8.163,4.515,15.553,11.789,19.29l34.213,17.532c1.076,0.552,2.249,0.825,3.42,0.825c1.359,0,2.714-0.369,3.912-1.101   c2.229-1.362,3.589-3.787,3.589-6.399v-62.442c0-4.143-3.358-7.5-7.5-7.5s-7.5,3.357-7.5,7.5v50.172l-23.286-11.933   c-2.243-1.152-3.636-3.431-3.636-5.944v-33.022c7.428-6.327,12.153-15.739,12.153-26.239c0-19.005-15.46-34.467-34.462-34.467   s-34.462,15.462-34.462,34.467c0,9.804,4.121,18.659,10.714,24.941v34.321c0,19.883,10.987,37.867,28.674,46.935l40.668,20.845   c2.244,1.152,3.637,3.431,3.637,5.945v5.163c-9.704,7.307-15.991,18.921-15.991,31.977c0,22.062,17.946,40.01,40.004,40.01   s40.004-17.948,40.004-40.01c0-13.918-7.147-26.193-17.959-33.363v-27.219C280.757,316.756,282.151,314.478,284.387,313.329z    M258.713,109.199l28.72,40.934h-57.44L258.713,109.199z M312.327,179.467h33.666v33.675h-33.666V179.467z M185.469,190.26   c10.731,0,19.462,8.732,19.462,19.467s-8.731,19.467-19.462,19.467s-19.462-8.732-19.462-19.467S174.737,190.26,185.469,190.26z    M258.713,404.862c-13.787,0-25.004-11.22-25.004-25.01s11.217-25.009,25.004-25.009s25.004,11.219,25.004,25.009   S272.5,404.862,258.713,404.862z"/>
</g>















</svg>
